<mxfile host="app.diagrams.net" modified="2024-03-13T04:26:13.218Z" agent="5.0 (Macintosh; Intel Mac OS X 10_15_7) AppleWebKit/537.36 (KHTML, like Gecko) Chrome/122.0.0.0 Safari/537.36" etag="ColhkwUUQyfGxZYEslKp" version="20.8.10" type="github">
  <diagram name="Page-1" id="IvhcHi7GAQZVUjzSj2Fh">
    <mxGraphModel dx="884" dy="449" grid="1" gridSize="10" guides="1" tooltips="1" connect="1" arrows="1" fold="1" page="1" pageScale="1" pageWidth="850" pageHeight="1100" math="0" shadow="0">
      <root>
        <mxCell id="0" />
        <mxCell id="1" parent="0" />
        <mxCell id="aYkyscsOnAFXeUAi1m1f-1" value="Actor" style="shape=umlActor;verticalLabelPosition=bottom;verticalAlign=top;html=1;outlineConnect=0;" vertex="1" parent="1">
          <mxGeometry x="70" y="280" width="30" height="60" as="geometry" />
        </mxCell>
        <mxCell id="aYkyscsOnAFXeUAi1m1f-2" value="" style="rounded=0;whiteSpace=wrap;html=1;" vertex="1" parent="1">
          <mxGeometry x="210" y="60" width="470" height="640" as="geometry" />
        </mxCell>
        <mxCell id="aYkyscsOnAFXeUAi1m1f-3" value="Select file with ebooks" style="ellipse;whiteSpace=wrap;html=1;" vertex="1" parent="1">
          <mxGeometry x="270" y="90" width="155" height="60" as="geometry" />
        </mxCell>
        <mxCell id="aYkyscsOnAFXeUAi1m1f-4" value="Select Book" style="ellipse;whiteSpace=wrap;html=1;" vertex="1" parent="1">
          <mxGeometry x="270" y="170" width="155" height="60" as="geometry" />
        </mxCell>
        <mxCell id="aYkyscsOnAFXeUAi1m1f-6" value="Access Core Data" style="ellipse;whiteSpace=wrap;html=1;" vertex="1" parent="1">
          <mxGeometry x="492.5" y="340" width="155" height="60" as="geometry" />
        </mxCell>
        <mxCell id="aYkyscsOnAFXeUAi1m1f-7" value="Access File System" style="ellipse;whiteSpace=wrap;html=1;" vertex="1" parent="1">
          <mxGeometry x="492.5" y="200" width="155" height="60" as="geometry" />
        </mxCell>
        <mxCell id="aYkyscsOnAFXeUAi1m1f-8" value="Change Sorting or Filtering" style="ellipse;whiteSpace=wrap;html=1;" vertex="1" parent="1">
          <mxGeometry x="267.5" y="240" width="155" height="60" as="geometry" />
        </mxCell>
        <mxCell id="aYkyscsOnAFXeUAi1m1f-9" value="Edit Book Details" style="ellipse;whiteSpace=wrap;html=1;" vertex="1" parent="1">
          <mxGeometry x="267.5" y="310" width="155" height="60" as="geometry" />
        </mxCell>
        <mxCell id="aYkyscsOnAFXeUAi1m1f-10" value="Add tag or review to book" style="ellipse;whiteSpace=wrap;html=1;" vertex="1" parent="1">
          <mxGeometry x="267.5" y="380" width="155" height="60" as="geometry" />
        </mxCell>
        <mxCell id="aYkyscsOnAFXeUAi1m1f-11" value="Read Book" style="ellipse;whiteSpace=wrap;html=1;" vertex="1" parent="1">
          <mxGeometry x="267.5" y="450" width="155" height="60" as="geometry" />
        </mxCell>
        <mxCell id="aYkyscsOnAFXeUAi1m1f-12" value="Change Chapter" style="ellipse;whiteSpace=wrap;html=1;" vertex="1" parent="1">
          <mxGeometry x="267.5" y="530" width="155" height="60" as="geometry" />
        </mxCell>
        <mxCell id="aYkyscsOnAFXeUAi1m1f-27" value="&amp;lt;&amp;lt;include&amp;gt;&amp;gt;" style="html=1;verticalAlign=bottom;labelBackgroundColor=none;endArrow=open;endFill=0;dashed=1;rounded=0;entryX=0.5;entryY=0;entryDx=0;entryDy=0;exitX=1;exitY=0.5;exitDx=0;exitDy=0;" edge="1" parent="1" source="aYkyscsOnAFXeUAi1m1f-3" target="aYkyscsOnAFXeUAi1m1f-7">
          <mxGeometry width="160" relative="1" as="geometry">
            <mxPoint x="490" y="119.63" as="sourcePoint" />
            <mxPoint x="650" y="119.63" as="targetPoint" />
            <Array as="points">
              <mxPoint x="570" y="120" />
            </Array>
          </mxGeometry>
        </mxCell>
        <mxCell id="aYkyscsOnAFXeUAi1m1f-28" value="&amp;lt;&amp;lt;include&amp;gt;&amp;gt;" style="html=1;verticalAlign=bottom;labelBackgroundColor=none;endArrow=open;endFill=0;dashed=1;rounded=0;exitX=0.5;exitY=1;exitDx=0;exitDy=0;entryX=0.5;entryY=0;entryDx=0;entryDy=0;" edge="1" parent="1" source="aYkyscsOnAFXeUAi1m1f-7" target="aYkyscsOnAFXeUAi1m1f-6">
          <mxGeometry width="160" relative="1" as="geometry">
            <mxPoint x="470" y="300" as="sourcePoint" />
            <mxPoint x="630" y="300" as="targetPoint" />
          </mxGeometry>
        </mxCell>
        <mxCell id="aYkyscsOnAFXeUAi1m1f-29" value="&amp;lt;&amp;lt;include&amp;gt;&amp;gt;" style="html=1;verticalAlign=bottom;labelBackgroundColor=none;endArrow=open;endFill=0;dashed=1;rounded=0;exitX=1;exitY=1;exitDx=0;exitDy=0;" edge="1" parent="1" source="aYkyscsOnAFXeUAi1m1f-4" target="aYkyscsOnAFXeUAi1m1f-6">
          <mxGeometry width="160" relative="1" as="geometry">
            <mxPoint x="410" y="300" as="sourcePoint" />
            <mxPoint x="570" y="300" as="targetPoint" />
          </mxGeometry>
        </mxCell>
        <mxCell id="aYkyscsOnAFXeUAi1m1f-30" value="&amp;lt;&amp;lt;include&amp;gt;&amp;gt;" style="html=1;verticalAlign=bottom;labelBackgroundColor=none;endArrow=open;endFill=0;dashed=1;rounded=0;exitX=0.982;exitY=0.628;exitDx=0;exitDy=0;exitPerimeter=0;entryX=0;entryY=0;entryDx=0;entryDy=0;" edge="1" parent="1" source="aYkyscsOnAFXeUAi1m1f-8" target="aYkyscsOnAFXeUAi1m1f-6">
          <mxGeometry width="160" relative="1" as="geometry">
            <mxPoint x="410" y="340" as="sourcePoint" />
            <mxPoint x="570" y="340" as="targetPoint" />
          </mxGeometry>
        </mxCell>
        <mxCell id="aYkyscsOnAFXeUAi1m1f-31" value="&amp;lt;&amp;lt;include&amp;gt;&amp;gt;" style="html=1;verticalAlign=bottom;labelBackgroundColor=none;endArrow=open;endFill=0;dashed=1;rounded=0;" edge="1" parent="1" target="aYkyscsOnAFXeUAi1m1f-6">
          <mxGeometry width="160" relative="1" as="geometry">
            <mxPoint x="420" y="340" as="sourcePoint" />
            <mxPoint x="570" y="340" as="targetPoint" />
          </mxGeometry>
        </mxCell>
        <mxCell id="aYkyscsOnAFXeUAi1m1f-32" value="&amp;lt;&amp;lt;include&amp;gt;&amp;gt;" style="html=1;verticalAlign=bottom;labelBackgroundColor=none;endArrow=open;endFill=0;dashed=1;rounded=0;entryX=0.027;entryY=0.628;entryDx=0;entryDy=0;entryPerimeter=0;" edge="1" parent="1" target="aYkyscsOnAFXeUAi1m1f-6">
          <mxGeometry width="160" relative="1" as="geometry">
            <mxPoint x="420" y="409.63" as="sourcePoint" />
            <mxPoint x="580" y="409.63" as="targetPoint" />
          </mxGeometry>
        </mxCell>
        <mxCell id="aYkyscsOnAFXeUAi1m1f-33" value="&amp;lt;&amp;lt;include&amp;gt;&amp;gt;" style="html=1;verticalAlign=bottom;labelBackgroundColor=none;endArrow=open;endFill=0;dashed=1;rounded=0;" edge="1" parent="1" target="aYkyscsOnAFXeUAi1m1f-6">
          <mxGeometry width="160" relative="1" as="geometry">
            <mxPoint x="425" y="479.63" as="sourcePoint" />
            <mxPoint x="585" y="479.63" as="targetPoint" />
          </mxGeometry>
        </mxCell>
        <mxCell id="aYkyscsOnAFXeUAi1m1f-34" value="&amp;lt;&amp;lt;include&amp;gt;&amp;gt;" style="html=1;verticalAlign=bottom;labelBackgroundColor=none;endArrow=open;endFill=0;dashed=1;rounded=0;entryX=0.5;entryY=1;entryDx=0;entryDy=0;" edge="1" parent="1" target="aYkyscsOnAFXeUAi1m1f-6">
          <mxGeometry width="160" relative="1" as="geometry">
            <mxPoint x="422.5" y="559.63" as="sourcePoint" />
            <mxPoint x="582.5" y="559.63" as="targetPoint" />
          </mxGeometry>
        </mxCell>
        <mxCell id="aYkyscsOnAFXeUAi1m1f-35" value="Delete Book" style="ellipse;whiteSpace=wrap;html=1;" vertex="1" parent="1">
          <mxGeometry x="267.5" y="600" width="155" height="60" as="geometry" />
        </mxCell>
        <mxCell id="aYkyscsOnAFXeUAi1m1f-36" value="&amp;lt;&amp;lt;include&amp;gt;&amp;gt;" style="html=1;verticalAlign=bottom;labelBackgroundColor=none;endArrow=open;endFill=0;dashed=1;rounded=0;entryX=0.673;entryY=0.961;entryDx=0;entryDy=0;entryPerimeter=0;" edge="1" parent="1" target="aYkyscsOnAFXeUAi1m1f-6">
          <mxGeometry width="160" relative="1" as="geometry">
            <mxPoint x="422.5" y="629.6300000000001" as="sourcePoint" />
            <mxPoint x="570" y="470" as="targetPoint" />
          </mxGeometry>
        </mxCell>
        <mxCell id="aYkyscsOnAFXeUAi1m1f-39" value="" style="endArrow=none;html=1;rounded=0;" edge="1" parent="1" target="aYkyscsOnAFXeUAi1m1f-3">
          <mxGeometry width="50" height="50" relative="1" as="geometry">
            <mxPoint x="90" y="310" as="sourcePoint" />
            <mxPoint x="140" y="260" as="targetPoint" />
          </mxGeometry>
        </mxCell>
      </root>
    </mxGraphModel>
  </diagram>
</mxfile>
